<?xml version="1.0" encoding="UTF-8"?>
<svg id="Layer_1" data-name="Layer 1" xmlns="http://www.w3.org/2000/svg" viewBox="0 0 1920 269.17">
  <defs>
    <style>
      .cls-1 {
        fill: #02a976;
      }

      .cls-2 {
        fill: #f38a24;
      }

      .cls-3 {
        fill: #ffb602;
      }

      .cls-4 {
        fill: #ed4234;
      }

      .cls-5 {
        fill: #7e5fcd;
      }

      .cls-6 {
        fill: #98ba1a;
      }

      .cls-7 {
        fill: #e255b8;
      }

      .cls-8 {
        fill: #15a1dd;
      }

      .cls-9 {
        fill: #2178d6;
      }

      .cls-10 {
        fill: #44c2be;
      }
    </style>
  </defs>
  <path class="cls-6" d="m0,0c10.65,3.89,21.95,5.91,32.89,9.2,4.14,1.25,8.36,2.2,12.9,3.44.86.81.87,1.52.17,2.41C30.66,11.24,15.7,7.27.37,3.44c-.37-.91-.37-1.98-.37-3.44Z"/>
  <path class="cls-6" d="m1897.13,16.44c7.76-2.46,15.11-4.83,22.66-7.52.2.75.2,1.81.2,3.28-7.28,2.53-14.57,4.66-22.18,6.9-1.9-.4-1.51-1.48-.69-2.66Z"/>
  <path class="cls-6" d="m876.61,138.82c36.87.24,73.42.61,109.97,1.01,9.81.11,19.77-.69,29.39.74,9.8,1.45,19.5.63,29.68,1.31.99.74,1.05,1.45.52,2.48-6.92.31-13.59.58-20.24.28-3.98-.18-6.13,1.03-7.98,4.75-19.2,38.62-38.61,77.13-57.97,115.67-.5,1.01-1.06,1.98-1.63,3.03-1.88-.74-1.98-2.41-2.57-3.67-18.32-39.03-36.67-78.06-54.79-117.18-1.74-3.75-3.81-5.11-7.78-5.05-5.48.09-10.98-.39-16.88-.7-1.08-1.01-.79-1.8.26-2.68Z"/>
  <path class="cls-1" d="m1046.17,144.89c-.21-.92-.17-1.58-.09-2.58,1.85-1.64,3.83-2.14,6.09-2.16,34.58-.32,69.17-.71,103.75-1.09,3.32-.04,6.64-.14,10.42-.17,1.36.52,1.97,1.2,1.91,2.62-15.89,33.95-31.65,67.56-47.43,101.17-4.01,8.54-8.06,17.06-12.52,26.5-20.91-41.92-41.4-82.97-62.13-124.28Z"/>
  <path class="cls-2" d="m611.09,118.66c1.5-2.66,3.66-2.92,6.15-2.66,36.87,3.86,73.75,7.68,110.63,11.52,1.48.15,3.04.2,4.11,2.04.69.95.75,1.65.33,2.7-22.98,36.93-45.74,73.57-68.51,110.2-1.48,2.37-2.98,4.73-5.16,8.19-15.92-43.78-31.46-86.52-47.21-129.6-.49-.91-.54-1.5-.34-2.39Z"/>
  <path class="cls-8" d="m1354.57,125.82c7.41-2.66,14.99-2.57,22.41-3.45,31.26-3.71,62.55-7.22,94.38-10.89,2.12-.34,2.96.63,3.81,2.07-4.35,13.37-8.71,26.46-13.28,39.48-10.41,29.67-20.91,59.31-31.4,88.94-.49,1.37-.55,3-2.3,4.25-24.6-38.98-49.17-77.93-73.98-117.2-.42-1.23-.22-2.1.36-3.2Z"/>
  <path class="cls-4" d="m471.23,100.36c2.64-1.4,5.15-.82,7.6-.5,35.49,4.57,70.97,9.17,106.45,13.78,1.96.25,4.04.22,5.8,2.16.6.89.64,1.52.32,2.46-15.88,24.17-31.6,48.04-47.3,71.94-8.77,13.35-17.47,26.73-26.23,40.08-.89,1.35-1.9,2.62-3.33,4.6-3.13-9.3-6.04-17.88-8.92-26.47-11.29-33.75-22.57-67.5-33.84-101.25-.42-1.26-.73-2.55-1.21-4.23-.19-1.11.04-1.73.65-2.55Z"/>
  <path class="cls-9" d="m45.76,15.66c0-1.04.13-1.65.32-2.56,2.28-1.25,4.46-1.14,6.83-.56,35.53,8.75,71.09,17.42,106.64,26.1,1.78.44,3.64.72,4.78,2.95.48.96.45,1.61.01,2.51-11.2,11.86-20.81,24.62-31.04,36.86-18.35,21.97-36.52,44.09-54.77,66.14-.94,1.14-1.95,2.22-3.67,4.17-9.77-45.61-19.37-90.4-29.1-135.62Z"/>
  <path class="cls-7" d="m1897.31,16c.22,1.1.21,1.87.19,2.92-7.36,45.17-14.71,90.05-22.25,136.1-5.46-5.87-10.38-11.08-15.22-16.37-21.34-23.3-42.64-46.62-63.99-69.91-4.83-5.27-9.76-10.44-14.99-15.83-.83-.85-.89-1.62-.68-2.68,1.23-2.33,3.11-3.17,5.28-3.82,35.37-10.51,70.72-21.07,106.07-31.63,1.94-.58,3.89-1.32,5.59,1.22Z"/>
  <path class="cls-9" d="m1494.34,108.31c3.18-2.41,6.78-2.41,10.18-3.04,34.33-6.32,68.67-12.59,103-18.89,1.96-.36,3.91-1.09,5.97.9.76,1.02.92,1.81.81,2.94-4.42,10.41-6.41,21.23-9.37,31.75-8.93,31.71-17.6,63.5-26.39,95.25-.48,1.75-1.06,3.47-1.98,6.45-27.73-37.82-54.91-74.89-82.39-112.23-.51-1.17-.34-2.02.17-3.14Z"/>
  <path class="cls-5" d="m1636.67,83.44c9.11-5.64,19.6-6.27,29.52-8.66,25.06-6.05,50.22-11.68,75.37-17.35,4.93-1.11,9.91-2.31,15.48-1.9.92.69,1.07,1.44.92,2.65-.84,1.01-1.67,1.52-1.89,2.64-8.47,43.93-19.86,87.22-29.36,130.92-.1.44-.43.82-.99,1.83-7.7-9.56-15.17-18.82-22.63-28.09-20.35-25.28-40.7-50.57-61.08-75.83-1.12-1.39-2.03-3.1-4.32-3.7-.59-.77-.79-1.5-1.05-2.5Z"/>
  <path class="cls-10" d="m1196.45,137.82c1.4-1.4,2.79-2.13,4.57-2.24,37.66-2.36,75.32-4.75,112.98-7.11.81-.05,1.64.19,2.93.45,1.03.81,1.22,1.6,1.25,2.74-10.77,26.48-21.5,52.66-32.21,78.85-6.3,15.4-12.56,30.83-18.86,46.23-.48,1.18-1.14,2.29-2.12,4.25-22.95-40.4-45.51-80.14-68.3-120.18-.63-1.08-.52-1.89-.24-2.99Z"/>
  <path class="cls-7" d="m329.16,76.35c2.41-1.68,4.8-1.75,7.37-1.3,35.74,6.27,71.48,12.5,107.22,18.76,1.95.34,3.99.56,5.69,2.52.5.9.48,1.53.08,2.42-14.34,19.81-28.52,39.34-42.65,58.9-12.28,17-24.51,34.04-36.8,51.04-.64.88-.96,2.19-2.91,2.42-12.35-43.05-24.72-86.16-37.18-129.61-.24-.94-.38-1.54-.77-2.54-.36-1.04-.37-1.69-.04-2.62Z"/>
  <path class="cls-5" d="m190.7,47.99c.92-4.64,3.22-5.63,7.64-4.63,35.55,7.98,71.15,15.71,106.73,23.53,1.61.35,3.28.67,4.89,2.03.31,1.04.3,1.9.46,3.16-.05,1.25-.64,1.77-1.54,2.34-9,9.93-16.73,20.58-24.9,30.86-19.38,24.38-38.62,48.87-57.94,73.29-.58.73-.99,1.8-2.87,1.78-2.32-9.63-4.7-19.4-7.04-29.19-7.69-32.22-15.36-64.45-23.05-96.67-.27-1.13-.68-2.22-1.3-3.64-.67-1.01-.99-1.74-1.09-2.86Z"/>
  <path class="cls-3" d="m876.77,138.36c-.16,1.04-.47,1.76-.81,2.78-16.55,29.21-33.07,58.12-49.59,87.04-6.09,10.67-12.16,21.35-18.79,33-17.37-42.68-34.34-84.37-51.46-126.4-.81-.96-1.41-1.59-1.22-2.85,1.09-3.11,2.99-3.91,5.93-3.72,37.12,2.49,74.25,4.88,111.37,7.29,1.89.12,3.67.44,4.57,2.86Z"/>
  <path class="cls-6" d="m1318.54,131.96c-.66-.78-.92-1.58-1.16-2.63,12.23-1.46,24.43-2.66,37.02-3.82.19.96,0,1.87-.3,2.99-11.8,1.29-23.48,2.37-35.56,3.46Z"/>
  <path class="cls-6" d="m1196.18,137.48c.41.85.44,1.65.38,2.73-9.26.74-18.43,1.19-28.01,1.64-.79-.81-1.17-1.61-1.65-2.67,9.57-.76,19.23-1.26,29.28-1.71Z"/>
  <path class="cls-6" d="m190.36,47.62c1,.66,1.45,1.35,1.23,2.6-8.93-1.66-17.79-3.63-27.05-5.73-.32-.78-.25-1.45-.09-2.34,8.58,1.65,17.07,3.52,25.91,5.47Z"/>
  <path class="cls-6" d="m1636.26,83.23c1.65.35,3.2.65,1.3,2.52-7.66,1.67-15.11,3.18-22.97,4.73-.57-.79-.73-1.61-.83-2.67,7.41-1.66,14.74-3.08,22.5-4.58Z"/>
  <path class="cls-6" d="m1758.21,58.52c-.52-.72-.71-1.47-.82-2.6,7.53-2.21,14.98-4.04,22.76-5.91.45.69.57,1.43.62,2.46-7.45,2.19-14.84,4.11-22.56,6.06Z"/>
  <path class="cls-6" d="m1494.14,108.02c.26.86.13,1.71-.13,2.85-6.15,1.25-12.16,2.2-18.45,3.06-1.3-.9-2.32-1.72-3.49-2.55,7.13-1.13,14.41-2.26,22.07-3.37Z"/>
  <path class="cls-6" d="m754.66,131.62c.71.75,1,1.48,1.3,2.51-7.65-.27-15.31-.84-23.41-1.49-.44-.79-.43-1.51-.4-2.49,7.37.3,14.73.87,22.52,1.47Z"/>
  <path class="cls-6" d="m449.7,99.14c-.33-.74-.29-1.35-.12-2.26,7.16.78,14.19,1.85,21.55,3.07.09.81-.13,1.46-.52,2.34-6.95-.86-13.75-1.95-20.91-3.15Z"/>
  <path class="cls-6" d="m309.08,74.73c-.4-1.12.33-1.56,1.27-2.14,6.26.99,12.28,2.11,18.63,3.35.33.77.33,1.42.15,2.35-6.69-.96-13.2-2.21-20.05-3.56Z"/>
  <path class="cls-6" d="m591.67,118.62c-.42-.74-.41-1.39-.37-2.28,6.37.47,12.7,1.18,19.47,1.96.85.71,1.25,1.35.57,2.25-6.49-.51-12.87-1.18-19.67-1.93Z"/>
  <path class="cls-6" d="m329.76,81.2c.1-.03.15-.1.13-.14-.03-.04-.32-.02-.32-.02,0,0,.08.19.19.16Z"/>
  <path class="cls-6" d="m310.33,69.06c-.06.02-.1.1-.06.11.04.02.12-.14.06-.11Z"/>
  <path class="cls-2" d="m767.27,130.61c18.43,1.37,36.47,1.76,54.4,3.85,6.9.8,13.89.72,20.84,1.17,9.41.61,18.81,1.29,28.2,2.13,1.1.1,3.44-.43,3.16,2.07-.24,2.21-2.1,1.74-3.51,1.75-14.6.08-29.07-1.71-43.59-2.85-5.61-.44-11.23-.44-16.87-.98-15.32-1.45-30.7-2.18-46.06-3.15-1.84-.12-3.52-.58-5.09-1.46,1.26-5.63,5.3-1.98,8.51-2.53Z"/>
</svg>