<svg version="1.1" id="Layer_1" xmlns="http://www.w3.org/2000/svg" xmlns:xlink="http://www.w3.org/1999/xlink" x="0px" y="0px"
	 width="100%" viewBox="0 0 1920 1280" enable-background="new 0 0 1920 1280" xml:space="preserve">
<path fill="#FFFFFF" opacity="1.000000" stroke="none" 
	d="
M1920.672241,73.773201 
	C1921.000000,474.626251 1920.994019,875.252502 1921.084839,1275.878784 
	C1921.085815,1279.786377 1920.681885,1281.135620 1916.122192,1281.134644 
	C1279.353149,1280.993164 642.583984,1280.995605 5.814924,1281.100952 
	C1.897798,1281.101562 0.880006,1280.509155 0.881330,1276.315918 
	C1.008671,872.856384 1.000000,469.396851 1.000000,65.468658 
	C2.297568,63.869503 3.768979,64.098297 5.218607,64.532768 
	C18.816469,68.608185 32.739006,71.521942 46.558228,76.212990 
	C49.895859,84.551346 51.273407,93.089432 53.076527,101.499870 
	C60.470669,135.989029 68.052879,170.438141 75.253273,204.968933 
	C75.537277,206.330948 75.225441,208.348846 77.045776,208.666977 
	C78.452957,208.912918 79.118431,207.229904 79.946823,206.235489 
	C105.927963,175.047913 131.700195,143.687439 157.597443,112.430420 
	C159.612152,109.998756 161.626236,107.536041 164.987061,106.053955 
	C174.489227,106.057922 183.018555,109.293518 192.214325,111.112335 
	C194.937851,112.819977 195.187927,115.431702 195.742065,117.824165 
	C204.689087,156.452728 214.214508,194.943848 223.255951,233.550018 
	C223.686066,235.386581 223.375824,238.254715 225.533615,238.633911 
	C227.566605,238.991165 228.502838,236.288528 229.690979,234.789368 
	C254.629013,203.323883 279.498505,171.804108 304.410461,140.317917 
	C305.645599,138.756805 306.721863,137.027740 309.041565,136.068909 
	C316.361328,135.636368 322.843018,138.402054 330.036407,139.107712 
	C330.911621,139.505249 331.263641,139.888596 331.505249,140.789276 
	C331.840607,141.751343 330.223663,142.028534 331.522339,143.026062 
	C337.681885,160.325729 342.056610,177.790634 347.095245,195.059845 
	C353.909058,218.413361 360.442535,241.846832 367.249939,265.201721 
	C367.700256,266.746674 367.929535,268.428650 369.395447,270.142944 
	C375.135468,263.038055 379.923309,255.663696 385.091492,248.578629 
	C405.125275,221.114288 424.805237,193.394409 444.774597,165.883499 
	C446.235138,163.871338 447.588348,161.723648 450.238037,160.329926 
	C457.450043,160.219299 464.070465,161.841248 471.125549,163.125580 
	C474.932800,169.734314 476.566345,176.873688 478.904755,183.729599 
	C490.994019,219.173401 502.683777,254.752472 514.611694,290.251282 
	C514.913940,291.150848 515.008423,292.248840 516.545227,292.798309 
	C519.029236,290.341919 520.737610,287.115723 522.690002,284.112579 
	C544.100769,251.177612 565.564331,218.277618 587.406128,185.626038 
	C588.697144,183.696091 589.857849,181.638458 592.310242,180.230682 
	C598.863098,178.958496 604.849609,180.306412 611.201843,181.726440 
	C614.266418,183.745529 614.907654,186.814804 615.933960,189.575012 
	C630.035095,227.498749 643.848572,265.528076 657.677551,303.551666 
	C657.848328,304.021179 657.981323,304.505310 658.169067,304.967590 
	C658.599121,306.026398 658.676514,307.586121 659.880371,307.836090 
	C661.536926,308.180054 661.932678,306.404510 662.589722,305.352997 
	C673.532532,287.841034 684.368103,270.262512 695.232849,252.702057 
	C706.096497,235.143539 717.028381,217.627228 727.842712,200.038086 
	C729.238220,197.768341 730.731018,195.537155 733.591370,194.108719 
	C741.116211,192.647690 748.138123,194.439926 755.607300,194.917511 
	C758.507935,196.039169 758.892395,198.518585 759.767090,200.620026 
	C775.623169,238.715042 791.100037,276.965210 806.620300,315.197632 
	C807.112976,316.411255 807.480347,317.705139 808.729553,318.967865 
	C811.000427,317.345154 811.977051,314.844208 813.205627,312.641144 
	C831.923645,279.076294 851.309021,245.889923 870.088196,212.359619 
	C871.944580,209.044998 873.815063,205.673370 876.773560,202.656403 
	C883.252258,202.593704 889.399780,202.875549 895.547668,202.706894 
	C898.817017,202.617218 900.603455,204.109467 902.039062,207.027893 
	C915.637329,234.672852 928.104004,262.848785 941.393005,290.638123 
	C946.348877,301.001556 951.237183,311.399628 955.905273,321.898865 
	C956.634949,323.539917 957.297852,325.266815 958.650391,326.581635 
	C960.718933,326.020844 960.962524,324.152985 961.647705,322.760437 
	C979.884094,285.697937 999.373474,249.266602 1017.405151,212.104752 
	C1019.998413,206.760315 1023.182434,204.030777 1029.291748,204.638275 
	C1034.906250,205.196579 1040.604858,204.227982 1046.582275,205.303894 
	C1049.571777,207.682434 1050.779419,210.839813 1052.275391,213.790924 
	C1070.332275,249.408585 1087.534912,285.449585 1105.458008,321.133667 
	C1106.055542,322.323395 1106.622192,323.529663 1107.259155,324.698181 
	C1107.723145,325.549072 1108.014160,326.771332 1109.129028,326.825287 
	C1110.583374,326.895721 1110.888062,325.447449 1111.339600,324.450226 
	C1119.437256,306.567230 1128.013184,288.909180 1136.332764,271.131042 
	C1142.677734,257.572510 1149.116455,244.057281 1155.462646,230.499268 
	C1158.985962,222.971970 1162.359253,215.361725 1166.211914,207.986389 
	C1167.055420,206.371536 1167.612549,204.586319 1169.512207,203.243103 
	C1178.498535,200.530243 1187.458252,202.178726 1196.588745,201.033920 
	C1200.121338,202.612396 1201.060791,205.844666 1202.583862,208.525391 
	C1222.746338,244.015640 1242.902466,279.509583 1263.005249,315.033722 
	C1263.738037,316.328674 1264.425781,317.670715 1265.577148,318.692322 
	C1267.557739,318.323669 1267.565918,316.544342 1268.085449,315.273376 
	C1283.532471,277.484528 1298.900757,239.663605 1314.324951,201.865433 
	C1315.562988,198.831589 1316.148193,195.371323 1319.494751,193.109787 
	C1325.864258,190.760559 1332.238403,191.436295 1338.422119,190.785355 
	C1343.282349,190.273727 1348.190674,189.240005 1353.550293,189.862244 
	C1356.922241,190.898239 1358.244873,193.521393 1359.738159,195.878311 
	C1377.366211,223.699738 1394.931641,251.560806 1412.607300,279.351959 
	C1417.952881,287.757019 1423.080933,296.306854 1428.957153,305.015045 
	C1431.235962,302.441040 1431.904297,299.528778 1432.828125,296.851807 
	C1445.363403,260.529327 1458.341309,224.363129 1471.136963,188.132675 
	C1472.464966,184.372482 1473.821899,180.618286 1475.704712,176.672394 
	C1481.602295,172.206909 1488.339111,172.826950 1495.141479,172.173309 
	C1501.105469,178.256409 1505.437012,185.188187 1510.266235,191.729889 
	C1531.444702,220.418716 1552.515625,249.187088 1573.596680,277.947784 
	C1574.507812,279.190704 1575.171997,281.433533 1577.156982,280.841125 
	C1578.629150,280.401764 1578.540161,278.335052 1578.930298,276.917511 
	C1589.632568,238.041397 1600.525635,199.217972 1611.169067,160.325455 
	C1611.988037,157.332626 1612.271362,154.029785 1615.012939,151.433533 
	C1622.399658,149.460800 1629.543579,148.151825 1637.086792,146.851562 
	C1642.309570,147.470581 1644.776611,151.297485 1647.457642,154.579559 
	C1655.778809,164.766510 1663.885498,175.128998 1672.157227,185.357132 
	C1688.805054,205.942398 1705.355957,226.605118 1721.896118,247.276718 
	C1723.115479,248.800583 1724.211060,250.512970 1726.691406,251.760834 
	C1728.793701,243.585297 1730.603027,235.540085 1732.438232,227.517853 
	C1739.752808,195.544540 1747.027466,163.561508 1754.614502,131.652451 
	C1755.557617,127.685616 1754.579102,123.198402 1757.883545,119.519791 
	C1765.779663,117.567078 1773.192383,115.177147 1781.277832,113.991257 
	C1786.991943,116.205177 1790.211060,120.830101 1793.861694,124.840576 
	C1803.159180,135.054474 1812.497925,145.231674 1821.819580,155.422745 
	C1838.441406,173.595215 1855.191406,191.650314 1871.640259,209.980896 
	C1872.608765,211.060135 1873.301392,212.525940 1875.647949,212.734634 
	C1882.816284,168.942841 1889.908691,125.125595 1897.562744,81.036682 
	C1905.056030,77.547340 1912.455078,74.774300 1920.672241,73.773201 
z"/>
<path fill="#FFFFFF" opacity="1.000000" stroke="none" 
	d="
M1.291461,61.280357 
	C1.000000,42.004055 1.052150,23.007792 0.936263,4.012555 
	C0.921196,1.542800 1.451805,0.508624 3.989911,0.981994 
	C4.634030,1.102125 5.319602,1.000000 5.986126,1.000000 
	C642.683533,1.000000 1279.380981,1.006224 1916.078369,0.873562 
	C1920.516724,0.872637 1921.146362,2.045447 1921.103760,6.077305 
	C1920.881226,27.070440 1921.000000,48.067192 1921.000000,69.531342 
	C1920.010010,71.949677 1918.120972,72.562508 1916.240723,73.143051 
	C1910.483032,74.920784 1904.894775,77.328690 1898.409790,77.802002 
	C1895.744751,76.736526 1893.520264,77.090263 1891.218750,77.768074 
	C1857.442017,87.715355 1823.688599,97.740395 1789.984741,107.931877 
	C1787.446411,108.699409 1784.871948,109.441566 1782.430176,111.409164 
	C1774.519897,114.502502 1766.514160,115.800011 1758.341553,118.044647 
	C1746.827759,118.137360 1736.283081,121.437088 1725.601318,123.841003 
	C1698.965698,129.835373 1672.372681,136.019470 1645.763184,142.130188 
	C1643.061523,142.750580 1640.879761,144.159988 1638.222412,145.699677 
	C1630.134766,146.389771 1622.773071,149.227264 1614.569092,149.150391 
	C1608.393066,148.177856 1602.896118,149.929810 1597.386353,150.948242 
	C1565.666138,156.811325 1533.929199,162.582443 1502.198853,168.389771 
	C1500.386108,168.721542 1498.652832,169.269104 1496.510010,169.978226 
	C1487.891479,171.278412 1479.694702,172.522003 1471.088379,173.980545 
	C1434.710083,178.676773 1398.679932,182.589417 1362.652344,186.523148 
	C1360.829834,186.722153 1359.027466,187.021729 1356.786011,187.435989 
	C1343.851562,189.286484 1331.253906,190.036255 1318.261230,191.417145 
	C1289.412720,191.827957 1261.166260,194.654007 1232.854370,196.376160 
	C1221.594727,197.061081 1210.300537,197.152390 1198.685181,199.152634 
	C1188.423340,200.860184 1178.493530,200.787918 1168.144287,201.454590 
	C1166.346680,201.658676 1165.013672,201.613358 1163.685059,201.585495 
	C1127.767334,200.831924 1091.877808,203.079208 1055.962891,202.592667 
	C1053.276001,202.556274 1050.653442,202.880173 1047.665161,203.987350 
	C1037.421997,204.340408 1027.606812,205.674057 1017.938232,202.984695 
	C1016.494080,202.582993 1014.969360,202.575455 1013.469543,202.602402 
	C978.349854,203.233109 943.257019,200.862000 908.139587,201.630066 
	C898.490967,201.841110 888.865356,201.874664 878.797302,200.956573 
	C875.756836,198.560242 872.836060,197.583282 869.319275,197.408508 
	C849.805054,196.438675 830.300049,195.307007 810.832642,193.556366 
	C799.284729,192.517914 787.675842,192.305984 776.105164,191.491516 
	C772.134888,191.212036 768.235718,190.390411 764.230835,190.362579 
	C761.404602,190.342957 758.992493,190.864914 756.616943,193.155365 
	C748.684021,194.260620 741.279297,192.780411 733.402283,191.875641 
	C731.176208,190.884796 729.444458,189.846222 727.397034,189.678406 
	C706.872925,187.996094 686.443542,185.388123 665.951965,183.379532 
	C651.410095,181.954132 636.867859,180.501175 622.345764,178.876434 
	C619.153931,178.519318 616.056213,178.425095 612.592957,179.715790 
	C605.589844,180.721100 599.243042,178.955933 592.386230,177.971680 
	C584.107910,174.645828 575.663147,174.784012 567.463318,173.687881 
	C539.788635,169.988419 512.085083,166.502655 484.397308,162.898148 
	C480.937958,162.447800 477.481110,161.916687 473.538025,162.122162 
	C465.625336,161.522171 458.271088,160.009674 450.437408,158.853928 
	C443.745697,155.192627 436.602844,155.034744 429.788879,153.839859 
	C399.512177,148.530563 369.218506,143.315720 338.949188,137.962509 
	C336.623138,137.551147 334.331543,137.469543 331.602203,138.015930 
	C324.676788,138.010910 318.526154,135.767609 311.752472,134.798782 
	C310.562836,134.155533 310.292969,133.393478 310.282349,132.115356 
	C310.151459,131.266525 311.321106,131.185455 310.230988,130.582947 
	C281.120697,123.993019 252.335938,117.758949 223.573502,111.424210 
	C215.772842,109.706154 207.965073,108.015572 200.191559,106.181854 
	C197.123734,105.458183 194.589005,105.695030 192.510513,108.878220 
	C183.022476,108.996529 174.348633,106.188332 165.193802,103.789619 
	C162.762604,101.790810 160.273682,100.956062 157.653183,100.325905 
	C124.523605,92.359184 91.446503,84.177696 58.356522,76.048767 
	C54.975868,75.218262 51.571274,74.344162 47.615036,74.698395 
	C32.917591,71.771797 18.990732,67.465477 4.966548,63.528885 
	C3.687619,63.169891 2.465235,62.638153 1.291461,61.280357 
z"/>
<path fill="#98BA1A" opacity="1.000000" stroke="none" 
	d="
M1.000000,61.399994 
	C11.646071,65.285698 22.953766,67.310852 33.890888,70.604889 
	C38.029060,71.851227 42.254047,72.809334 46.787247,74.044586 
	C47.648598,74.855865 47.655743,75.561256 46.960014,76.455910 
	C31.661938,72.641052 16.704582,68.665443 1.373613,64.844917 
	C1.000000,63.933331 1.000000,62.866661 1.000000,61.399994 
z"/>
<path fill="#98BA1A" opacity="1.000000" stroke="none" 
	d="
M1898.133545,77.840454 
	C1905.891113,75.375778 1913.243042,73.008980 1920.797485,70.321091 
	C1921.000000,71.066673 1921.000000,72.133339 1921.000000,73.600021 
	C1913.717285,76.129356 1906.434448,78.258675 1898.823486,80.496933 
	C1896.925049,80.094765 1897.313354,79.020325 1898.133545,77.840454 
z"/>
<path fill="#98BA1A" opacity="1.000000" stroke="none" 
	d="
M877.605896,200.223236 
	C914.474060,200.460449 951.026611,200.833023 987.578918,201.234650 
	C997.390198,201.342453 1007.347595,200.546127 1016.970398,201.971283 
	C1026.768188,203.422394 1036.465576,202.597504 1046.652100,203.280518 
	C1047.642456,204.019791 1047.698364,204.729172 1047.177002,205.762360 
	C1040.259399,206.070267 1033.586548,206.341690 1026.939087,206.044693 
	C1022.955444,205.866730 1020.811218,207.074188 1018.962341,210.793533 
	C999.765015,249.412674 980.350891,287.924042 960.992188,326.462952 
	C960.487305,327.468018 959.927551,328.445526 959.360046,329.497681 
	C957.484802,328.756378 957.377319,327.084137 956.789795,325.832520 
	C938.467285,286.798950 920.119507,247.776886 901.997131,208.650452 
	C900.260193,204.900391 898.189270,203.539261 894.220825,203.601273 
	C888.736633,203.686920 883.243530,203.209076 877.341125,202.899979 
	C876.260132,201.891876 876.554504,201.098175 877.605896,200.223236 
z"/>
<path fill="#02A976" opacity="1.000000" stroke="none" 
	d="
M1047.172241,206.289062 
	C1046.962036,205.373138 1047.002563,204.708115 1047.080566,203.711670 
	C1048.925659,202.068817 1050.905884,201.576401 1053.173828,201.555206 
	C1087.758789,201.232132 1122.343140,200.844421 1156.927612,200.461136 
	C1160.249634,200.424316 1163.570923,200.316620 1167.346191,200.287079 
	C1168.704468,200.806519 1169.314209,201.487961 1169.252563,202.902374 
	C1153.366455,236.853226 1137.598877,270.465088 1121.818848,304.071136 
	C1117.809448,312.609802 1113.760498,321.129913 1109.300659,330.566376 
	C1088.387451,288.648193 1067.905151,247.594070 1047.172241,206.289062 
z"/>
<path fill="#F38A24" opacity="1.000000" stroke="none" 
	d="
M612.091064,180.057678 
	C613.593506,177.394104 615.749695,177.136887 618.246033,177.398087 
	C655.119812,181.256439 691.997681,185.076431 728.873657,188.913666 
	C730.353943,189.067703 731.908691,189.111710 732.983276,190.955368 
	C733.677612,191.907242 733.734375,192.608566 733.310791,193.659332 
	C710.332336,230.593338 687.567078,267.226410 664.798462,303.857422 
	C663.322998,306.231018 661.821594,308.588501 659.640259,312.052399 
	C643.718689,268.270660 628.178284,225.536972 612.431946,182.448593 
	C611.942566,181.536621 611.888000,180.946945 612.091064,180.057678 
z"/>
<path fill="#15A1DD" opacity="1.000000" stroke="none" 
	d="
M1355.573242,187.215363 
	C1362.986572,184.554703 1370.562378,184.641373 1377.978394,183.761078 
	C1409.239502,180.050491 1440.524414,176.539383 1472.359131,172.867920 
	C1474.477173,172.527344 1475.319580,173.495972 1476.170410,174.938492 
	C1471.821167,188.308777 1467.460693,201.401993 1462.893921,214.422821 
	C1452.488037,244.091873 1441.988647,273.728119 1431.490723,303.364746 
	C1431.004883,304.736084 1430.941528,306.362122 1429.187500,307.615082 
	C1404.592163,268.636475 1380.013306,229.683853 1355.211426,190.417007 
	C1354.790039,189.182190 1354.986450,188.318192 1355.573242,187.215363 
z"/>
<path fill="#ED4234" opacity="1.000000" stroke="none" 
	d="
M472.228149,161.758301 
	C474.869995,160.353897 477.374512,160.941055 479.823242,161.256302 
	C515.311035,165.824966 550.794250,170.428650 586.277283,175.034164 
	C588.238159,175.288666 590.312866,175.258087 592.078674,177.190079 
	C592.683655,178.084885 592.719727,178.714600 592.403442,179.650696 
	C576.527893,203.816925 560.798706,227.691513 545.101440,251.587051 
	C536.334839,264.932220 527.627014,278.315979 518.874756,291.670563 
	C517.988831,293.022278 516.978760,294.292664 515.540527,296.268005 
	C512.407471,286.970032 509.498352,278.390259 506.624634,269.798615 
	C495.336517,236.049881 484.057617,202.298019 472.786072,168.543732 
	C472.366089,167.285995 472.058044,165.990891 471.575317,164.311798 
	C471.383118,163.203506 471.611603,162.583557 472.228149,161.758301 
z"/>
<path fill="#2178D6" opacity="1.000000" stroke="none" 
	d="
M46.757797,77.056282 
	C46.755829,76.012489 46.892365,75.408310 47.081963,74.497238 
	C49.363651,73.250999 51.537079,73.355919 53.910843,73.940659 
	C89.444786,82.693916 125.000397,91.359215 160.551849,100.041374 
	C162.333389,100.476456 164.188339,100.763916 165.328659,102.992706 
	C165.805588,103.956299 165.775101,104.599274 165.340637,105.505646 
	C154.143082,117.363289 144.526871,130.124130 134.301971,142.368744 
	C115.955284,164.339432 97.782852,186.455612 79.530365,208.505005 
	C78.588554,209.642746 77.578934,210.724365 75.859413,212.671906 
	C66.085922,167.057281 56.491116,122.276596 46.757797,77.056282 
z"/>
<path fill="#E255B8" opacity="1.000000" stroke="none" 
	d="
M1898.314453,77.402626 
	C1898.531738,78.506203 1898.524292,79.269836 1898.505981,80.319656 
	C1891.145752,125.490173 1883.796265,170.374496 1876.257324,216.416748 
	C1870.794800,210.547684 1865.876465,205.334717 1861.036011,200.050385 
	C1839.697266,176.754990 1818.391724,153.429169 1797.048096,130.138245 
	C1792.220459,124.870026 1787.288452,119.697357 1782.054688,114.312897 
	C1781.224976,113.462265 1781.163452,112.697823 1781.376953,111.628952 
	C1782.609009,109.298409 1784.488281,108.455635 1786.652466,107.812317 
	C1822.018311,97.300125 1857.369629,86.739494 1892.723267,76.186081 
	C1894.661377,75.607559 1896.610962,74.870064 1898.314453,77.402626 
z"/>
<path fill="#2178D6" opacity="1.000000" stroke="none" 
	d="
M1495.340332,169.707733 
	C1498.517212,167.299622 1502.117920,167.296066 1505.515503,166.670258 
	C1539.843262,160.347183 1574.181396,154.079666 1608.513062,147.777344 
	C1610.473755,147.417435 1612.426147,146.682846 1614.485840,148.681030 
	C1615.243774,149.702560 1615.402100,150.495239 1615.295288,151.616852 
	C1610.874390,162.029480 1608.888062,172.848465 1605.926147,183.368500 
	C1596.997070,215.081757 1588.322144,246.866577 1579.537842,278.620605 
	C1579.053711,280.370361 1578.474609,282.093811 1577.557495,285.069519 
	C1549.823486,247.245636 1522.646729,210.181641 1495.168701,172.842743 
	C1494.659546,171.671997 1494.826782,170.818115 1495.340332,169.707733 
z"/>
<path fill="#7E5FCD" opacity="1.000000" stroke="none" 
	d="
M1637.670410,144.838654 
	C1646.783081,139.194321 1657.265869,138.572403 1667.190430,136.175629 
	C1692.250610,130.123535 1717.413940,124.495346 1742.564819,118.825455 
	C1747.494019,117.714233 1752.470947,116.516548 1758.049561,116.924866 
	C1758.968750,117.610039 1759.122803,118.369293 1758.971069,119.571457 
	C1758.132202,120.586288 1757.298706,121.091034 1757.082764,122.211716 
	C1748.614868,166.146652 1737.225586,209.427139 1727.724731,253.131088 
	C1727.629517,253.569366 1727.290527,253.954681 1726.736450,254.963898 
	C1719.036621,245.405212 1711.571411,236.141617 1704.110596,226.874435 
	C1683.757568,201.594009 1663.414062,176.306076 1643.034668,151.046890 
	C1641.912354,149.655807 1641.008911,147.942947 1638.717163,147.343506 
	C1638.127319,146.572601 1637.925903,145.838699 1637.670410,144.838654 
z"/>
<path fill="#44C2BE" opacity="1.000000" stroke="none" 
	d="
M1197.450684,199.222748 
	C1198.849121,197.823486 1200.244751,197.094086 1202.024658,196.982742 
	C1239.684570,194.626465 1277.341797,192.231903 1315.001343,189.869827 
	C1315.811401,189.819046 1316.639771,190.061691 1317.935059,190.320526 
	C1318.961060,191.134918 1319.156738,191.923035 1319.184326,193.061508 
	C1308.417480,219.546371 1297.683350,245.722122 1286.971069,271.906860 
	C1280.668945,287.311462 1274.407471,302.732666 1268.106323,318.137695 
	C1267.622925,319.319336 1266.969482,320.431366 1265.985474,322.391998 
	C1243.040405,281.987610 1220.474243,242.250565 1197.689697,202.209595 
	C1197.059204,201.127243 1197.164917,200.319534 1197.450684,199.222748 
z"/>
<path fill="#E255B8" opacity="1.000000" stroke="none" 
	d="
M330.157410,137.752777 
	C332.565277,136.073273 334.957947,136.002975 337.524414,136.453613 
	C373.261017,142.728561 409.006226,148.954376 444.746124,155.210587 
	C446.697357,155.552139 448.738586,155.773224 450.431274,157.727722 
	C450.929596,158.626862 450.916107,159.257050 450.511353,160.151733 
	C436.170441,179.961014 421.991394,199.489059 407.857635,219.049774 
	C395.573547,236.050598 383.349182,253.094589 371.060303,270.091919 
	C370.423828,270.972229 370.095795,272.286041 368.147095,272.515411 
	C355.797119,229.463638 343.430695,186.354523 330.964111,142.909424 
	C330.725342,141.970444 330.586670,141.367432 330.198303,140.370789 
	C329.840881,139.328552 329.826904,138.682922 330.157410,137.752777 
z"/>
<path fill="#7E5FCD" opacity="1.000000" stroke="none" 
	d="
M191.699371,109.385452 
	C192.617676,104.749832 194.922104,103.759964 199.337814,104.750961 
	C234.884567,112.728424 270.486633,120.459343 306.067841,128.283615 
	C307.682159,128.638611 309.344666,128.955017 310.956512,130.311188 
	C311.262848,131.349915 311.252838,132.212067 311.414215,133.471024 
	C311.365143,134.722427 310.769867,135.239380 309.872131,135.815582 
	C300.870514,145.745895 293.146729,156.392883 284.975342,166.673920 
	C265.598206,191.053802 246.356415,215.541260 227.038010,239.967911 
	C226.457367,240.702087 226.045700,241.768875 224.166199,241.744781 
	C221.844116,232.117035 219.464722,222.340775 217.129700,212.553925 
	C209.441650,180.330887 201.772034,148.103470 194.081619,115.881004 
	C193.812531,114.753593 193.397873,113.660927 192.784729,112.242340 
	C192.110458,111.232742 191.790970,110.500221 191.699371,109.385452 
z"/>
<path fill="#FFB602" opacity="1.000000" stroke="none" 
	d="
M877.773926,199.756989 
	C877.611450,200.797409 877.301270,201.517868 876.959595,202.532867 
	C860.408691,231.741150 843.885254,260.652527 827.372070,289.569824 
	C821.279419,300.239288 815.210999,310.922638 808.578491,322.570892 
	C791.208557,279.892426 774.242310,238.205856 757.115662,196.172867 
	C756.303467,195.217743 755.708008,194.577881 755.899353,193.321518 
	C756.985229,190.207397 758.887512,189.409409 761.825867,189.606323 
	C798.946533,192.093750 836.073853,194.482605 873.199463,196.896164 
	C875.091675,197.019165 876.868591,197.339157 877.773926,199.756989 
z"/>
<path fill="#98BA1A" opacity="1.000000" stroke="none" 
	d="
M1319.543213,193.355743 
	C1318.882812,192.573166 1318.623047,191.779434 1318.386963,190.729675 
	C1330.614746,189.270508 1342.818970,188.067413 1355.402588,186.907410 
	C1355.593750,187.863663 1355.405518,188.776825 1355.102783,189.896393 
	C1343.307007,191.183395 1331.625366,192.263992 1319.543213,193.355743 
z"/>
<path fill="#98BA1A" opacity="1.000000" stroke="none" 
	d="
M1197.183350,198.880081 
	C1197.596069,199.732712 1197.626465,200.528122 1197.563965,201.614609 
	C1188.302246,202.357635 1179.133423,202.809570 1169.551636,203.252533 
	C1168.759766,202.441650 1168.380859,201.639755 1167.900879,200.585098 
	C1177.466797,199.829178 1187.133789,199.326019 1197.183350,198.880081 
z"/>
<path fill="#98BA1A" opacity="1.000000" stroke="none" 
	d="
M191.361801,109.017929 
	C192.362106,109.682831 192.808929,110.369934 192.589478,111.621902 
	C183.659851,109.959854 174.801285,107.987091 165.541595,105.891754 
	C165.217316,105.106865 165.294159,104.444557 165.456573,103.547676 
	C174.032852,105.192802 182.523560,107.072495 191.361801,109.017929 
z"/>
<path fill="#98BA1A" opacity="1.000000" stroke="none" 
	d="
M1637.263672,144.626633 
	C1638.918579,144.981293 1640.467529,145.273270 1638.558960,147.149216 
	C1630.900513,148.815887 1623.445801,150.333740 1615.592285,151.879120 
	C1615.026978,151.086792 1614.860352,150.266968 1614.762939,149.208832 
	C1622.169800,147.547653 1629.507324,146.124802 1637.263672,144.626633 
z"/>
<path fill="#98BA1A" opacity="1.000000" stroke="none" 
	d="
M1759.214355,119.924225 
	C1758.692261,119.208359 1758.500000,118.458618 1758.394043,117.322754 
	C1765.927368,115.111977 1773.374146,113.287323 1781.153809,111.409721 
	C1781.603027,112.100639 1781.719482,112.844505 1781.770508,113.866707 
	C1774.318115,116.060135 1766.931274,117.975235 1759.214355,119.924225 
z"/>
<path fill="#98BA1A" opacity="1.000000" stroke="none" 
	d="
M1495.136963,169.420700 
	C1495.395142,170.280518 1495.265991,171.127991 1495.002197,172.271652 
	C1488.853638,173.519653 1482.839844,174.471451 1476.550537,175.335846 
	C1475.254028,174.430908 1474.232788,173.613373 1473.064575,172.788177 
	C1480.194946,171.656464 1487.472168,170.532394 1495.136963,169.420700 
z"/>
<path fill="#98BA1A" opacity="1.000000" stroke="none" 
	d="
M755.655640,193.020752 
	C756.367493,193.773346 756.659668,194.503693 756.953491,195.530228 
	C749.299561,195.257523 741.643921,194.688614 733.543274,194.040207 
	C733.108032,193.246826 733.117798,192.532944 733.139954,191.554474 
	C740.513611,191.859451 747.874756,192.428970 755.655640,193.020752 
z"/>
<path fill="#98BA1A" opacity="1.000000" stroke="none" 
	d="
M450.697968,160.536499 
	C450.369415,159.801437 450.409027,159.184113 450.582275,158.280334 
	C457.746002,159.060013 464.776093,160.126114 472.128052,161.348358 
	C472.221893,162.157562 471.993927,162.810654 471.609375,163.687073 
	C464.657227,162.825012 457.861694,161.739609 450.697968,160.536499 
z"/>
<path fill="#98BA1A" opacity="1.000000" stroke="none" 
	d="
M310.077332,136.130081 
	C309.673859,135.010864 310.404572,134.573532 311.347778,133.992828 
	C317.607208,134.985809 323.628845,136.103775 329.977692,137.341858 
	C330.308075,138.111221 330.311188,138.760468 330.131470,139.693420 
	C323.440674,138.731750 316.932709,137.486343 310.077332,136.130081 
z"/>
<path fill="#98BA1A" opacity="1.000000" stroke="none" 
	d="
M592.665649,180.015366 
	C592.247375,179.278839 592.251038,178.624100 592.294556,177.731369 
	C598.662415,178.200287 604.990295,178.907211 611.761597,179.696289 
	C612.609680,180.410812 613.013794,181.043243 612.335083,181.942642 
	C605.846558,181.428314 599.467102,180.762741 592.665649,180.015366 
z"/>
<path fill="#98BA1A" opacity="1.000000" stroke="none" 
	d="
M330.760925,142.598755 
	C330.864014,142.573456 330.915833,142.497223 330.888977,142.459274 
	C330.862152,142.421326 330.572906,142.435699 330.572906,142.435699 
	C330.572906,142.435699 330.657806,142.624039 330.760925,142.598755 
z"/>
<path fill="#98BA1A" opacity="1.000000" stroke="none" 
	d="
M311.330750,130.463226 
	C311.272858,130.487778 311.228027,130.561172 311.268738,130.576233 
	C311.309479,130.591293 311.388611,130.438675 311.330750,130.463226 
z"/>
<path fill="#F38A24" opacity="1.000000" stroke="none" 
	d="
M768.272095,192.005737 
	C786.698608,193.379288 804.740845,193.764435 822.675049,195.851608 
	C829.572693,196.654358 836.569519,196.572983 843.512512,197.026474 
	C852.921082,197.641006 862.327271,198.317123 871.717468,199.156921 
	C872.820557,199.255569 875.156250,198.723160 874.881531,201.223526 
	C874.638489,203.435562 872.783386,202.966843 871.374023,202.974335 
	C856.777954,203.051987 842.302368,201.260483 827.784058,200.126556 
	C822.171326,199.688171 816.551392,199.682205 810.918640,199.148499 
	C795.602478,197.697250 780.217224,196.970490 764.856995,195.994232 
	C763.017700,195.877335 761.338684,195.412643 759.765320,194.534546 
	C761.027466,188.903580 765.062561,192.553284 768.272095,192.005737 
z"/>
</svg>